# xmcd
#
# Track frame offsets: 
#        150
#        26195
#        47116
#        72578
#        87652
#        118645
#        142242
#        160699
#        171763
#        196506
#        218803
#        243810
#        266573
#        290532
#
# Disc length: 4292 seconds
#
# Revision: 1
# Processed by: cddbd v1.5.2PL0 Copyright (c) Steve Scherf et al.
# Submitted via: ExactAudioCopyFreeDBPlugin 1.0
#
DISCID=d210c20e
DTITLE=Various Artist - Putumayo presents Yoga
DYEAR=2010
DGENRE=New Age
TTITLE0=Ghungate Ke - The Lucknow Project
TTITLE1=Om Hari Om/Sharanam Ganesha - Sean Johnson and The Wild Lotus 
TTITLE1=Band
TTITLE2=Purnamadah - Shantala
TTITLE3=Bolo Ram - Wah!
TTITLE4=Cerulean - Ben Leinbach and Geoffrey Gordon
TTITLE5=Devaki - Karnamrita Dasi
TTITLE6=Bangles - Niraj Chag
TTITLE7=El Bosque Eterno de Los Niños - Amounsulu
TTITLE8=Moods Of Kirtan (Siksastakam) - Gaura Vani and As Kindred Spirit
TTITLE8=s
TTITLE9=O Rama - Susheela Raman
TTITLE10=Hanuman Baba (Dub Farm Remix) - Krishna Das
TTITLE11=Sira - Ablaye Cissoko and Volker Goetz
TTITLE12=Offering Chant - Lama Gyurne and Jean-Phillippe Rykiel
TTITLE13=Bliss - Yogini
EXTD=YEAR: 2010
EXTT0=
EXTT1=
EXTT2=
EXTT3=
EXTT4=
EXTT5=
EXTT6=
EXTT7=
EXTT8=
EXTT9=
EXTT10=
EXTT11=
EXTT12=
EXTT13=
PLAYORDER=
